<mxfile host="app.diagrams.net" modified="2024-03-30T17:08:59.513Z" agent="Mozilla/5.0 (Macintosh; Intel Mac OS X 10_15_7) AppleWebKit/605.1.15 (KHTML, like Gecko) Version/17.4.1 Safari/605.1.15" etag="-XE2ijGsVoaM_b-RbB7V" version="24.2.1" type="device">
  <diagram name="Pagina-1" id="tVM9FFdeqambxCKcERLd">
    <mxGraphModel dx="1781" dy="675" grid="1" gridSize="10" guides="1" tooltips="1" connect="1" arrows="1" fold="1" page="1" pageScale="1" pageWidth="827" pageHeight="1169" math="0" shadow="0">
      <root>
        <mxCell id="0" />
        <mxCell id="1" parent="0" />
        <mxCell id="KEl-r9nibhDkUgPk2lWO-1" value="&amp;nbsp; &amp;nbsp;Preprocessing" style="rounded=1;whiteSpace=wrap;html=1;verticalAlign=top;align=left;fontSize=16;fillColor=#f5f5f5;fontColor=#333333;strokeColor=#666666;" vertex="1" parent="1">
          <mxGeometry x="70" y="250" width="330" height="140" as="geometry" />
        </mxCell>
        <mxCell id="KEl-r9nibhDkUgPk2lWO-3" value="Dataset" style="shape=hexagon;perimeter=hexagonPerimeter2;whiteSpace=wrap;html=1;fixedSize=1;fontSize=18;fillColor=#d5e8d4;strokeColor=#82b366;" vertex="1" parent="1">
          <mxGeometry x="-120" y="280" width="120" height="80" as="geometry" />
        </mxCell>
        <mxCell id="KEl-r9nibhDkUgPk2lWO-4" value="" style="endArrow=classic;html=1;rounded=0;entryX=0;entryY=0.5;entryDx=0;entryDy=0;exitX=1;exitY=0.5;exitDx=0;exitDy=0;strokeWidth=3;" edge="1" parent="1" source="KEl-r9nibhDkUgPk2lWO-3" target="KEl-r9nibhDkUgPk2lWO-1">
          <mxGeometry width="50" height="50" relative="1" as="geometry">
            <mxPoint x="-20" y="450" as="sourcePoint" />
            <mxPoint x="30" y="400" as="targetPoint" />
          </mxGeometry>
        </mxCell>
        <mxCell id="KEl-r9nibhDkUgPk2lWO-5" value="Rescale&lt;div style=&quot;font-size: 16px;&quot;&gt;32x150&lt;/div&gt;" style="ellipse;whiteSpace=wrap;html=1;fontSize=16;fillColor=#dae8fc;strokeColor=#6c8ebf;" vertex="1" parent="1">
          <mxGeometry x="100" y="290" width="120" height="80" as="geometry" />
        </mxCell>
        <mxCell id="KEl-r9nibhDkUgPk2lWO-6" value="Normalize&lt;div style=&quot;font-size: 16px;&quot;&gt;mean=0.5&lt;/div&gt;&lt;div style=&quot;font-size: 16px;&quot;&gt;std=0.5&lt;/div&gt;" style="ellipse;whiteSpace=wrap;html=1;fontSize=16;fillColor=#dae8fc;strokeColor=#6c8ebf;" vertex="1" parent="1">
          <mxGeometry x="250" y="290" width="120" height="80" as="geometry" />
        </mxCell>
        <mxCell id="KEl-r9nibhDkUgPk2lWO-7" value="" style="endArrow=classic;html=1;rounded=0;exitX=0;exitY=0.5;exitDx=0;exitDy=0;entryX=0;entryY=0.5;entryDx=0;entryDy=0;strokeWidth=2;" edge="1" parent="1" source="KEl-r9nibhDkUgPk2lWO-1" target="KEl-r9nibhDkUgPk2lWO-5">
          <mxGeometry width="50" height="50" relative="1" as="geometry">
            <mxPoint x="150" y="370" as="sourcePoint" />
            <mxPoint x="200" y="320" as="targetPoint" />
            <Array as="points">
              <mxPoint x="80" y="320" />
              <mxPoint x="80" y="330" />
            </Array>
          </mxGeometry>
        </mxCell>
        <mxCell id="KEl-r9nibhDkUgPk2lWO-8" value="" style="endArrow=classic;html=1;rounded=0;exitX=1;exitY=0.5;exitDx=0;exitDy=0;entryX=0;entryY=0.5;entryDx=0;entryDy=0;strokeWidth=2;" edge="1" parent="1" source="KEl-r9nibhDkUgPk2lWO-5" target="KEl-r9nibhDkUgPk2lWO-6">
          <mxGeometry width="50" height="50" relative="1" as="geometry">
            <mxPoint x="140" y="370" as="sourcePoint" />
            <mxPoint x="190" y="320" as="targetPoint" />
          </mxGeometry>
        </mxCell>
        <mxCell id="KEl-r9nibhDkUgPk2lWO-9" value="" style="endArrow=classic;html=1;rounded=0;exitX=1;exitY=0.5;exitDx=0;exitDy=0;entryX=1;entryY=0.5;entryDx=0;entryDy=0;strokeWidth=2;" edge="1" parent="1" source="KEl-r9nibhDkUgPk2lWO-6" target="KEl-r9nibhDkUgPk2lWO-1">
          <mxGeometry width="50" height="50" relative="1" as="geometry">
            <mxPoint x="280" y="370" as="sourcePoint" />
            <mxPoint x="330" y="320" as="targetPoint" />
            <Array as="points">
              <mxPoint x="380" y="330" />
              <mxPoint x="380" y="320" />
            </Array>
          </mxGeometry>
        </mxCell>
        <mxCell id="KEl-r9nibhDkUgPk2lWO-11" value="Load Dataset" style="ellipse;whiteSpace=wrap;html=1;fillColor=#e1d5e7;strokeColor=#9673a6;fontSize=18;" vertex="1" parent="1">
          <mxGeometry x="480" y="275" width="140" height="90" as="geometry" />
        </mxCell>
        <mxCell id="KEl-r9nibhDkUgPk2lWO-12" value="" style="endArrow=classic;html=1;rounded=0;exitX=1;exitY=0.5;exitDx=0;exitDy=0;entryX=0;entryY=0.5;entryDx=0;entryDy=0;strokeWidth=3;" edge="1" parent="1" source="KEl-r9nibhDkUgPk2lWO-1" target="KEl-r9nibhDkUgPk2lWO-11">
          <mxGeometry width="50" height="50" relative="1" as="geometry">
            <mxPoint x="390" y="400" as="sourcePoint" />
            <mxPoint x="440" y="350" as="targetPoint" />
          </mxGeometry>
        </mxCell>
        <mxCell id="KEl-r9nibhDkUgPk2lWO-13" value="&amp;nbsp; Split Dataset" style="rounded=1;whiteSpace=wrap;html=1;fillColor=#f5f5f5;fontColor=#333333;strokeColor=#666666;fontSize=16;verticalAlign=top;align=left;" vertex="1" parent="1">
          <mxGeometry x="430" y="440" width="240" height="100" as="geometry" />
        </mxCell>
        <mxCell id="KEl-r9nibhDkUgPk2lWO-15" value="" style="endArrow=classic;html=1;rounded=0;exitX=0.5;exitY=1;exitDx=0;exitDy=0;entryX=0.5;entryY=0;entryDx=0;entryDy=0;strokeWidth=3;" edge="1" parent="1" source="KEl-r9nibhDkUgPk2lWO-11" target="KEl-r9nibhDkUgPk2lWO-13">
          <mxGeometry width="50" height="50" relative="1" as="geometry">
            <mxPoint x="410" y="330" as="sourcePoint" />
            <mxPoint x="490" y="330" as="targetPoint" />
          </mxGeometry>
        </mxCell>
        <mxCell id="KEl-r9nibhDkUgPk2lWO-17" value="" style="rounded=0;whiteSpace=wrap;html=1;fillColor=#d5e8d4;strokeColor=#82b366;" vertex="1" parent="1">
          <mxGeometry x="440" y="490" width="140" height="40" as="geometry" />
        </mxCell>
        <mxCell id="KEl-r9nibhDkUgPk2lWO-18" value="" style="rounded=0;whiteSpace=wrap;html=1;fillColor=#fff2cc;strokeColor=#d6b656;" vertex="1" parent="1">
          <mxGeometry x="580" y="490" width="40" height="40" as="geometry" />
        </mxCell>
        <mxCell id="KEl-r9nibhDkUgPk2lWO-19" value="" style="rounded=0;whiteSpace=wrap;html=1;fillColor=#ffe6cc;strokeColor=#d79b00;" vertex="1" parent="1">
          <mxGeometry x="620" y="490" width="40" height="40" as="geometry" />
        </mxCell>
        <mxCell id="KEl-r9nibhDkUgPk2lWO-20" value="Training" style="text;html=1;align=center;verticalAlign=middle;whiteSpace=wrap;rounded=0;fontSize=10;" vertex="1" parent="1">
          <mxGeometry x="440" y="470" width="60" height="30" as="geometry" />
        </mxCell>
        <mxCell id="KEl-r9nibhDkUgPk2lWO-21" value="Validation" style="text;html=1;align=center;verticalAlign=middle;whiteSpace=wrap;rounded=0;fontSize=10;" vertex="1" parent="1">
          <mxGeometry x="570" y="470" width="60" height="30" as="geometry" />
        </mxCell>
        <mxCell id="KEl-r9nibhDkUgPk2lWO-22" value="Test" style="text;html=1;align=center;verticalAlign=middle;whiteSpace=wrap;rounded=0;fontSize=10;" vertex="1" parent="1">
          <mxGeometry x="610" y="470" width="60" height="30" as="geometry" />
        </mxCell>
        <mxCell id="KEl-r9nibhDkUgPk2lWO-23" value="70%" style="text;html=1;align=center;verticalAlign=middle;whiteSpace=wrap;rounded=0;fontSize=14;" vertex="1" parent="1">
          <mxGeometry x="480" y="495" width="60" height="30" as="geometry" />
        </mxCell>
        <mxCell id="KEl-r9nibhDkUgPk2lWO-24" value="15%" style="text;html=1;align=center;verticalAlign=middle;whiteSpace=wrap;rounded=0;fontSize=14;" vertex="1" parent="1">
          <mxGeometry x="570" y="495" width="60" height="30" as="geometry" />
        </mxCell>
        <mxCell id="KEl-r9nibhDkUgPk2lWO-25" value="15%" style="text;html=1;align=center;verticalAlign=middle;whiteSpace=wrap;rounded=0;fontSize=14;" vertex="1" parent="1">
          <mxGeometry x="610" y="495" width="60" height="30" as="geometry" />
        </mxCell>
        <mxCell id="KEl-r9nibhDkUgPk2lWO-26" value="Load Model" style="ellipse;whiteSpace=wrap;html=1;fillColor=#e1d5e7;strokeColor=#9673a6;fontSize=18;" vertex="1" parent="1">
          <mxGeometry x="200" y="440" width="140" height="90" as="geometry" />
        </mxCell>
        <mxCell id="KEl-r9nibhDkUgPk2lWO-29" value="Train Model" style="rounded=1;whiteSpace=wrap;html=1;fillColor=#f8cecc;strokeColor=#b85450;fontSize=18;" vertex="1" parent="1">
          <mxGeometry x="320" y="620" width="160" height="80" as="geometry" />
        </mxCell>
        <mxCell id="KEl-r9nibhDkUgPk2lWO-30" value="" style="endArrow=classic;html=1;rounded=0;exitX=0.5;exitY=1;exitDx=0;exitDy=0;strokeWidth=2;entryX=0.25;entryY=0;entryDx=0;entryDy=0;" edge="1" parent="1" source="KEl-r9nibhDkUgPk2lWO-17" target="KEl-r9nibhDkUgPk2lWO-29">
          <mxGeometry width="50" height="50" relative="1" as="geometry">
            <mxPoint x="420" y="590" as="sourcePoint" />
            <mxPoint x="500" y="560" as="targetPoint" />
            <Array as="points">
              <mxPoint x="510" y="570" />
              <mxPoint x="360" y="570" />
            </Array>
          </mxGeometry>
        </mxCell>
        <mxCell id="KEl-r9nibhDkUgPk2lWO-31" value="" style="endArrow=classic;html=1;rounded=0;exitX=0.5;exitY=1;exitDx=0;exitDy=0;strokeWidth=2;entryX=0.75;entryY=0;entryDx=0;entryDy=0;" edge="1" parent="1" source="KEl-r9nibhDkUgPk2lWO-18" target="KEl-r9nibhDkUgPk2lWO-29">
          <mxGeometry width="50" height="50" relative="1" as="geometry">
            <mxPoint x="420" y="590" as="sourcePoint" />
            <mxPoint x="550" y="570" as="targetPoint" />
            <Array as="points">
              <mxPoint x="600" y="590" />
              <mxPoint x="440" y="590" />
            </Array>
          </mxGeometry>
        </mxCell>
        <mxCell id="KEl-r9nibhDkUgPk2lWO-32" value="" style="endArrow=classic;html=1;rounded=0;exitX=0.5;exitY=1;exitDx=0;exitDy=0;strokeWidth=3;entryX=0;entryY=0.5;entryDx=0;entryDy=0;" edge="1" parent="1" source="KEl-r9nibhDkUgPk2lWO-26" target="KEl-r9nibhDkUgPk2lWO-29">
          <mxGeometry width="50" height="50" relative="1" as="geometry">
            <mxPoint x="420" y="590" as="sourcePoint" />
            <mxPoint x="430" y="580" as="targetPoint" />
            <Array as="points">
              <mxPoint x="270" y="660" />
            </Array>
          </mxGeometry>
        </mxCell>
        <mxCell id="KEl-r9nibhDkUgPk2lWO-33" value="Save Best&lt;div style=&quot;font-size: 18px;&quot;&gt;Model&lt;/div&gt;" style="shape=parallelogram;perimeter=parallelogramPerimeter;whiteSpace=wrap;html=1;fixedSize=1;fillColor=#d5e8d4;strokeColor=#82b366;fontSize=18;" vertex="1" parent="1">
          <mxGeometry x="320" y="760" width="160" height="80" as="geometry" />
        </mxCell>
        <mxCell id="KEl-r9nibhDkUgPk2lWO-34" value="" style="endArrow=classic;html=1;rounded=0;exitX=0.5;exitY=1;exitDx=0;exitDy=0;entryX=0.5;entryY=0;entryDx=0;entryDy=0;strokeWidth=3;" edge="1" parent="1" source="KEl-r9nibhDkUgPk2lWO-29" target="KEl-r9nibhDkUgPk2lWO-33">
          <mxGeometry width="50" height="50" relative="1" as="geometry">
            <mxPoint x="320" y="720" as="sourcePoint" />
            <mxPoint x="370" y="670" as="targetPoint" />
          </mxGeometry>
        </mxCell>
        <mxCell id="KEl-r9nibhDkUgPk2lWO-35" value="Plot Training&lt;div style=&quot;font-size: 18px;&quot;&gt;Loss &amp;amp; Accuracy&lt;/div&gt;" style="rounded=1;whiteSpace=wrap;html=1;fillColor=#fff2cc;strokeColor=#d6b656;fontSize=18;" vertex="1" parent="1">
          <mxGeometry x="560" y="620" width="160" height="80" as="geometry" />
        </mxCell>
        <mxCell id="KEl-r9nibhDkUgPk2lWO-36" value="" style="endArrow=classic;html=1;rounded=0;exitX=1;exitY=0.5;exitDx=0;exitDy=0;entryX=0;entryY=0.5;entryDx=0;entryDy=0;strokeWidth=3;" edge="1" parent="1" source="KEl-r9nibhDkUgPk2lWO-29" target="KEl-r9nibhDkUgPk2lWO-35">
          <mxGeometry width="50" height="50" relative="1" as="geometry">
            <mxPoint x="500" y="640" as="sourcePoint" />
            <mxPoint x="550" y="590" as="targetPoint" />
          </mxGeometry>
        </mxCell>
        <mxCell id="KEl-r9nibhDkUgPk2lWO-37" value="&amp;nbsp; &amp;nbsp;Evaluate Model" style="rounded=1;whiteSpace=wrap;html=1;verticalAlign=top;align=left;fontSize=16;fillColor=#f5f5f5;fontColor=#333333;strokeColor=#666666;" vertex="1" parent="1">
          <mxGeometry x="317" y="900" width="330" height="190" as="geometry" />
        </mxCell>
        <mxCell id="KEl-r9nibhDkUgPk2lWO-38" value="Accuracy" style="ellipse;whiteSpace=wrap;html=1;aspect=fixed;fillColor=#e1d5e7;strokeColor=#9673a6;fontSize=14;" vertex="1" parent="1">
          <mxGeometry x="347" y="930" width="70" height="70" as="geometry" />
        </mxCell>
        <mxCell id="KEl-r9nibhDkUgPk2lWO-39" value="Precision" style="ellipse;whiteSpace=wrap;html=1;aspect=fixed;fillColor=#e1d5e7;strokeColor=#9673a6;fontSize=14;" vertex="1" parent="1">
          <mxGeometry x="447" y="930" width="70" height="70" as="geometry" />
        </mxCell>
        <mxCell id="KEl-r9nibhDkUgPk2lWO-40" value="Recall" style="ellipse;whiteSpace=wrap;html=1;aspect=fixed;fillColor=#e1d5e7;strokeColor=#9673a6;fontSize=14;" vertex="1" parent="1">
          <mxGeometry x="547" y="930" width="70" height="70" as="geometry" />
        </mxCell>
        <mxCell id="KEl-r9nibhDkUgPk2lWO-41" value="F1-Score" style="ellipse;whiteSpace=wrap;html=1;aspect=fixed;fillColor=#e1d5e7;strokeColor=#9673a6;fontSize=14;" vertex="1" parent="1">
          <mxGeometry x="347" y="1010" width="70" height="70" as="geometry" />
        </mxCell>
        <mxCell id="KEl-r9nibhDkUgPk2lWO-42" value="Confusion&lt;div&gt;Matrix&lt;/div&gt;" style="ellipse;whiteSpace=wrap;html=1;aspect=fixed;fillColor=#e1d5e7;strokeColor=#9673a6;fontSize=14;" vertex="1" parent="1">
          <mxGeometry x="447" y="1010" width="70" height="70" as="geometry" />
        </mxCell>
        <mxCell id="KEl-r9nibhDkUgPk2lWO-43" value="ROC&lt;div&gt;Curve&lt;/div&gt;" style="ellipse;whiteSpace=wrap;html=1;aspect=fixed;fillColor=#e1d5e7;strokeColor=#9673a6;fontSize=14;" vertex="1" parent="1">
          <mxGeometry x="547" y="1010" width="70" height="70" as="geometry" />
        </mxCell>
        <mxCell id="KEl-r9nibhDkUgPk2lWO-44" value="" style="endArrow=classic;html=1;rounded=0;exitX=0.5;exitY=1;exitDx=0;exitDy=0;entryX=0.25;entryY=0;entryDx=0;entryDy=0;strokeWidth=3;" edge="1" parent="1" source="KEl-r9nibhDkUgPk2lWO-33" target="KEl-r9nibhDkUgPk2lWO-37">
          <mxGeometry width="50" height="50" relative="1" as="geometry">
            <mxPoint x="410" y="1000" as="sourcePoint" />
            <mxPoint x="460" y="950" as="targetPoint" />
          </mxGeometry>
        </mxCell>
        <mxCell id="KEl-r9nibhDkUgPk2lWO-45" value="" style="endArrow=classic;html=1;rounded=0;entryX=0.75;entryY=0;entryDx=0;entryDy=0;exitX=0.5;exitY=1;exitDx=0;exitDy=0;strokeWidth=2;" edge="1" parent="1" source="KEl-r9nibhDkUgPk2lWO-19" target="KEl-r9nibhDkUgPk2lWO-37">
          <mxGeometry width="50" height="50" relative="1" as="geometry">
            <mxPoint x="440" y="750" as="sourcePoint" />
            <mxPoint x="490" y="700" as="targetPoint" />
            <Array as="points">
              <mxPoint x="640" y="580" />
              <mxPoint x="760" y="580" />
              <mxPoint x="760" y="760" />
              <mxPoint x="565" y="760" />
            </Array>
          </mxGeometry>
        </mxCell>
      </root>
    </mxGraphModel>
  </diagram>
</mxfile>
